<svg width="67" height="23" viewBox="0 0 67 23" fill="none" xmlns="http://www.w3.org/2000/svg">
<rect width="67" height="23" rx="11.5" fill="#F2F2F2"/>
<path d="M31.628 16L27.872 7.024H26.936L23.18 16H24.38L25.328 13.72H29.492L30.428 16H31.628ZM25.736 12.76L27.416 8.716L29.084 12.76H25.736ZM35.355 9.772C33.627 9.772 32.343 10.924 32.343 12.94C32.343 14.956 33.639 16.12 35.355 16.12C36.831 16.12 37.887 15.28 38.115 13.924L37.107 13.828C36.963 14.692 36.315 15.22 35.355 15.22C34.239 15.22 33.399 14.404 33.399 12.94C33.399 11.488 34.215 10.66 35.355 10.66C36.279 10.66 36.987 11.224 37.095 12.148L38.103 12.064C37.923 10.636 36.795 9.772 35.355 9.772ZM42.0405 15.148C41.4405 15.148 40.9605 14.848 40.9605 13.96L40.9845 10.78H42.6285V9.88H40.9845L40.9965 7.768H39.9525L39.9405 9.88H38.8005V10.78H39.9405L39.9285 14.164C39.9165 15.508 40.6965 16.084 41.8125 16.084C42.1965 16.084 42.4365 16.048 42.6405 16.012V15.088C42.4965 15.112 42.2925 15.148 42.0405 15.148ZM44.5056 6.988C44.1336 6.988 43.8216 7.288 43.8216 7.672C43.8216 8.044 44.1216 8.344 44.5056 8.344C44.8776 8.344 45.1896 8.044 45.1896 7.672C45.1896 7.288 44.8776 6.988 44.5056 6.988ZM45.0096 16V9.88H43.9776V16H45.0096ZM49.6625 16L52.3025 9.88H51.1505L49.2545 14.44L47.3225 9.88H46.1825L48.8345 16H49.6625ZM58.706 13.336V12.772C58.706 10.96 57.65 9.772 55.898 9.772C54.158 9.772 52.886 10.948 52.886 12.94C52.886 14.932 54.17 16.12 55.922 16.12C57.338 16.12 58.394 15.292 58.646 14.188L57.614 14.128C57.41 14.812 56.798 15.22 55.898 15.22C54.818 15.22 54.038 14.512 53.978 13.336H58.706ZM55.886 10.672C57.05 10.672 57.65 11.428 57.674 12.496H53.978C54.05 11.308 54.83 10.672 55.886 10.672Z" fill="black"/>
<circle cx="13.5" cy="12.5" r="5.5" fill="#B2F76E"/>
</svg>
