<svg width="22" height="22" viewBox="0 0 22 22" fill="none" xmlns="http://www.w3.org/2000/svg">
<path d="M9.71094 21.3887H11.6836C12.0612 21.3887 12.3835 21.2812 12.6504 21.0664C12.9238 20.8581 13.1029 20.5716 13.1875 20.207L13.6074 18.3809L13.9199 18.2734L15.5117 19.25C15.8242 19.4518 16.153 19.5299 16.498 19.4844C16.8431 19.4388 17.1491 19.2826 17.416 19.0156L18.7832 17.6582C19.0501 17.3913 19.2064 17.0853 19.252 16.7402C19.2975 16.3952 19.2194 16.0664 19.0176 15.7539L18.0215 14.1719L18.1387 13.8789L19.9648 13.4492C20.3229 13.3646 20.6094 13.1855 20.8242 12.9121C21.0391 12.6387 21.1465 12.3164 21.1465 11.9453V10.0117C21.1465 9.64062 21.0391 9.31836 20.8242 9.04492C20.6094 8.77148 20.3229 8.59245 19.9648 8.50781L18.1582 8.06836L18.0312 7.75586L19.0273 6.17383C19.2292 5.86133 19.3073 5.53581 19.2617 5.19727C19.2161 4.85221 19.0599 4.54297 18.793 4.26953L17.4258 2.90234C17.1654 2.64193 16.8626 2.48893 16.5176 2.44336C16.1725 2.39779 15.8438 2.47266 15.5312 2.66797L13.9395 3.64453L13.6074 3.51758L13.1875 1.69141C13.1029 1.33333 12.9238 1.04688 12.6504 0.832031C12.3835 0.617188 12.0612 0.509766 11.6836 0.509766H9.71094C9.33333 0.509766 9.00781 0.617188 8.73438 0.832031C8.46745 1.04688 8.29167 1.33333 8.20703 1.69141L7.77734 3.51758L7.44531 3.64453L5.86328 2.66797C5.54427 2.47266 5.21224 2.39779 4.86719 2.44336C4.52865 2.48893 4.22591 2.64193 3.95898 2.90234L2.60156 4.26953C2.32812 4.54297 2.16862 4.85221 2.12305 5.19727C2.08398 5.53581 2.16536 5.86133 2.36719 6.17383L3.35352 7.75586L3.23633 8.06836L1.42969 8.50781C1.0651 8.59245 0.775391 8.77148 0.560547 9.04492C0.352214 9.31836 0.248047 9.64062 0.248047 10.0117V11.9453C0.248047 12.3164 0.355469 12.6387 0.570312 12.9121C0.785156 13.1855 1.07161 13.3646 1.42969 13.4492L3.25586 13.8789L3.36328 14.1719L2.37695 15.7539C2.17513 16.0664 2.09375 16.3952 2.13281 16.7402C2.17839 17.0853 2.33789 17.3913 2.61133 17.6582L3.96875 19.0156C4.23568 19.2826 4.54167 19.4388 4.88672 19.4844C5.23177 19.5299 5.5638 19.4518 5.88281 19.25L7.46484 18.2734L7.77734 18.3809L8.20703 20.207C8.29167 20.5716 8.46745 20.8581 8.73438 21.0664C9.00781 21.2812 9.33333 21.3887 9.71094 21.3887ZM9.86719 19.8652C9.70443 19.8652 9.61003 19.7904 9.58398 19.6406L8.99805 17.2188C8.69857 17.1471 8.41211 17.056 8.13867 16.9453C7.87174 16.8281 7.63411 16.7044 7.42578 16.5742L5.29688 17.8828C5.17969 17.9674 5.05924 17.9512 4.93555 17.834L3.7832 16.6816C3.67904 16.584 3.66602 16.4635 3.74414 16.3203L5.05273 14.2109C4.94206 14.0026 4.82812 13.765 4.71094 13.498C4.59375 13.2311 4.49609 12.9479 4.41797 12.6484L1.99609 12.0723C1.84635 12.0462 1.77148 11.9518 1.77148 11.7891V10.1582C1.77148 10.002 1.84635 9.90755 1.99609 9.875L4.4082 9.28906C4.48633 8.97005 4.58724 8.67383 4.71094 8.40039C4.84115 8.12695 4.94857 7.89909 5.0332 7.7168L3.73438 5.60742C3.64974 5.46419 3.65951 5.33724 3.76367 5.22656L4.92578 4.09375C5.04297 3.98958 5.16667 3.97331 5.29688 4.04492L7.40625 5.32422C7.61458 5.20703 7.85872 5.08984 8.13867 4.97266C8.42513 4.85547 8.71484 4.75781 9.00781 4.67969L9.58398 2.25781C9.61003 2.10807 9.70443 2.0332 9.86719 2.0332H11.5273C11.6901 2.0332 11.7812 2.10807 11.8008 2.25781L12.3965 4.69922C12.7025 4.77734 12.9857 4.875 13.2461 4.99219C13.513 5.10286 13.7539 5.2168 13.9688 5.33398L16.0879 4.04492C16.2246 3.97331 16.3516 3.98958 16.4688 4.09375L17.6211 5.22656C17.7318 5.33724 17.7415 5.46419 17.6504 5.60742L16.3516 7.7168C16.4427 7.89909 16.5501 8.12695 16.6738 8.40039C16.7975 8.67383 16.8984 8.97005 16.9766 9.28906L19.3984 9.875C19.5482 9.90755 19.623 10.002 19.623 10.1582V11.7891C19.623 11.9518 19.5482 12.0462 19.3984 12.0723L16.9668 12.6484C16.8887 12.9479 16.791 13.2311 16.6738 13.498C16.5632 13.765 16.4492 14.0026 16.332 14.2109L17.6406 16.3203C17.7253 16.4635 17.7122 16.584 17.6016 16.6816L16.459 17.834C16.3353 17.9512 16.2116 17.9674 16.0879 17.8828L13.959 16.5742C13.7507 16.7044 13.513 16.8281 13.2461 16.9453C12.9792 17.056 12.696 17.1471 12.3965 17.2188L11.8008 19.6406C11.7812 19.7904 11.6901 19.8652 11.5273 19.8652H9.86719ZM10.6973 14.6797C11.3809 14.6797 12.0026 14.5137 12.5625 14.1816C13.1289 13.8431 13.5781 13.3906 13.9102 12.8242C14.2487 12.2578 14.418 11.6328 14.418 10.9492C14.418 10.2721 14.2487 9.65365 13.9102 9.09375C13.5781 8.52734 13.1289 8.07812 12.5625 7.74609C12.0026 7.40755 11.3809 7.23828 10.6973 7.23828C10.0137 7.23828 9.38867 7.40755 8.82227 7.74609C8.26237 8.07812 7.81315 8.52734 7.47461 9.09375C7.13607 9.65365 6.9668 10.2721 6.9668 10.9492C6.9668 11.6328 7.13607 12.2578 7.47461 12.8242C7.81315 13.3841 8.26237 13.8333 8.82227 14.1719C9.38867 14.5104 10.0137 14.6797 10.6973 14.6797ZM10.6973 13.166C10.2936 13.166 9.92253 13.0684 9.58398 12.873C9.25195 12.6712 8.98503 12.4043 8.7832 12.0723C8.58789 11.7337 8.49023 11.3594 8.49023 10.9492C8.49023 10.5456 8.58789 10.1777 8.7832 9.8457C8.98503 9.51367 9.25195 9.25 9.58398 9.05469C9.92253 8.85286 10.2936 8.75195 10.6973 8.75195C11.0944 8.75195 11.459 8.85286 11.791 9.05469C12.123 9.25 12.3867 9.51367 12.582 9.8457C12.7839 10.1777 12.8848 10.5456 12.8848 10.9492C12.8848 11.3529 12.7839 11.724 12.582 12.0625C12.3867 12.3945 12.123 12.6615 11.791 12.8633C11.459 13.0651 11.0944 13.166 10.6973 13.166Z" fill="#03134D" fill-opacity="0.4"/>
</svg>
