<svg width="17" height="21" viewBox="0 0 17 21" fill="none" xmlns="http://www.w3.org/2000/svg">
<path d="M3.53027 19.8184L4.76953 19.8184L4.76953 0.974609L3.53027 0.974609L3.53027 19.8184ZM16.749 17.999L16.749 2.79394C16.749 1.86816 16.5205 1.17676 16.0635 0.719726C15.6123 0.262695 14.9355 0.0341789 14.0332 0.034179L3.29297 0.0341795C2.39062 0.0341795 1.71094 0.262695 1.25391 0.719726C0.796874 1.17676 0.568358 1.86816 0.568358 2.79395L0.568359 17.999C0.568359 18.9189 0.796875 19.6104 1.25391 20.0732C1.70508 20.5303 2.38477 20.7588 3.29297 20.7588L14.0332 20.7588C14.9355 20.7588 15.6123 20.5303 16.0635 20.0732C16.5205 19.6104 16.749 18.9189 16.749 17.999ZM15.334 17.9814C15.334 18.4209 15.2197 18.7578 14.9912 18.9922C14.7568 19.2266 14.4111 19.3437 13.9541 19.3437L3.37207 19.3437C2.91504 19.3437 2.56934 19.2266 2.33496 18.9922C2.10059 18.7578 1.9834 18.4209 1.9834 17.9814L1.9834 2.81152C1.9834 2.37793 2.10059 2.04395 2.33496 1.80957C2.56934 1.56934 2.91504 1.44922 3.37207 1.44922L13.9541 1.44922C14.4111 1.44922 14.7568 1.56934 14.9912 1.80957C15.2197 2.04394 15.334 2.37793 15.334 2.81152L15.334 17.9814ZM13.4531 10.3877C13.4531 10.2002 13.3857 10.0361 13.251 9.89551C13.1162 9.75488 12.9551 9.68457 12.7676 9.68457L9.86719 9.68457L8.39062 9.74609L9.18164 8.99023L10.3242 7.84766C10.3945 7.77734 10.4473 7.70117 10.4824 7.61914C10.5176 7.53711 10.5352 7.45508 10.5352 7.37305C10.5352 7.18555 10.4766 7.03027 10.3594 6.90723C10.2422 6.78418 10.0928 6.72266 9.91113 6.72266C9.81152 6.72266 9.72363 6.74316 9.64746 6.78418C9.56543 6.81934 9.49219 6.875 9.42773 6.95117L6.70312 9.87793C6.54492 10.0537 6.46582 10.2236 6.46582 10.3877C6.46582 10.5518 6.54492 10.7217 6.70312 10.8975L9.42773 13.8242C9.49219 13.8945 9.56543 13.9502 9.64746 13.9912C9.72363 14.0322 9.81152 14.0527 9.91113 14.0527C10.0928 14.0527 10.2422 13.9941 10.3594 13.877C10.4766 13.7539 10.5352 13.5986 10.5352 13.4111C10.5352 13.2295 10.4648 13.0684 10.3242 12.9277L9.18164 11.7852L8.39062 11.0293L9.86719 11.082L12.7676 11.082C12.9551 11.082 13.1162 11.0146 13.251 10.8799C13.3857 10.7393 13.4531 10.5752 13.4531 10.3877Z" fill="#03134D" fill-opacity="0.4"/>
</svg>
