<svg width="21" height="23" viewBox="0 0 21 23" fill="none" xmlns="http://www.w3.org/2000/svg">
<path d="M15.5 14.1133L18.332 15.7344C18.3841 15.7604 18.4102 15.7897 18.4102 15.8223C18.4102 15.8613 18.3841 15.8939 18.332 15.9199L10.9004 20.1777C10.7376 20.2689 10.5944 20.3145 10.4707 20.3145C10.3405 20.3145 10.194 20.2689 10.0312 20.1777L2.59961 15.9199C2.55404 15.8939 2.53125 15.8613 2.53125 15.8223C2.53125 15.7897 2.55404 15.7604 2.59961 15.7344L5.66602 13.9863L4.02539 13.0586L1.58398 14.4746C1.19336 14.709 0.913411 14.9271 0.744141 15.1289C0.57487 15.3242 0.490234 15.5553 0.490234 15.8223C0.490234 16.0957 0.57487 16.3333 0.744141 16.5352C0.913411 16.7305 1.19336 16.9453 1.58398 17.1797L9.23047 21.6133C9.46484 21.75 9.67969 21.8509 9.875 21.916C10.0703 21.9811 10.2689 22.0137 10.4707 22.0137C10.666 22.0137 10.8613 21.9811 11.0566 21.916C11.2585 21.8509 11.4766 21.75 11.7109 21.6133L19.3477 17.1797C19.7448 16.9453 20.028 16.7305 20.1973 16.5352C20.3665 16.3333 20.4512 16.0957 20.4512 15.8223C20.4512 15.5553 20.3665 15.3242 20.1973 15.1289C20.028 14.9271 19.7448 14.709 19.3477 14.4746L17.0234 13.1172L15.5 14.1133ZM15.2852 9.49414L18.332 11.2324C18.3841 11.2585 18.4102 11.291 18.4102 11.3301C18.4102 11.3691 18.3841 11.4017 18.332 11.4277L10.9004 15.6758C10.7376 15.7669 10.5944 15.8125 10.4707 15.8125C10.3405 15.8125 10.194 15.7669 10.0312 15.6758L2.59961 11.4277C2.55404 11.4017 2.53125 11.3691 2.53125 11.3301C2.53125 11.291 2.55404 11.2585 2.59961 11.2324L5.89062 9.34766L4.32812 8.39062L1.58398 9.97266C1.19336 10.207 0.913411 10.4251 0.744141 10.627C0.57487 10.8288 0.490234 11.0632 0.490234 11.3301C0.490234 11.597 0.57487 11.8314 0.744141 12.0332C0.913411 12.235 1.19336 12.4499 1.58398 12.6777L9.23047 17.1211C9.46484 17.2578 9.67969 17.3587 9.875 17.4238C10.0703 17.4889 10.2689 17.5215 10.4707 17.5215C10.666 17.5215 10.8613 17.4889 11.0566 17.4238C11.2585 17.3587 11.4766 17.2578 11.7109 17.1211L19.3477 12.6777C19.7448 12.4499 20.028 12.235 20.1973 12.0332C20.3665 11.8314 20.4512 11.597 20.4512 11.3301C20.4512 11.0632 20.3665 10.8288 20.1973 10.627C20.028 10.4251 19.7448 10.207 19.3477 9.97266L16.7988 8.48828L15.2852 9.49414ZM10.4707 12.707C10.666 12.707 10.8613 12.6745 11.0566 12.6094C11.2585 12.5443 11.4766 12.4434 11.7109 12.3066L19.3477 7.87305C19.7448 7.63867 20.028 7.42383 20.1973 7.22852C20.3665 7.02669 20.4512 6.78906 20.4512 6.51562C20.4512 6.2487 20.3665 6.01758 20.1973 5.82227C20.028 5.62044 19.7448 5.40234 19.3477 5.16797L11.7109 0.734375C11.4766 0.597656 11.2585 0.496745 11.0566 0.431641C10.8613 0.366536 10.666 0.333984 10.4707 0.333984C10.2689 0.333984 10.0703 0.366536 9.875 0.431641C9.67969 0.496745 9.46484 0.597656 9.23047 0.734375L1.58398 5.16797C1.19336 5.40234 0.913411 5.62044 0.744141 5.82227C0.57487 6.01758 0.490234 6.2487 0.490234 6.51562C0.490234 6.78906 0.57487 7.02669 0.744141 7.22852C0.913411 7.42383 1.19336 7.63867 1.58398 7.87305L9.23047 12.3066C9.46484 12.4434 9.67969 12.5443 9.875 12.6094C10.0703 12.6745 10.2689 12.707 10.4707 12.707ZM10.4707 11.0078C10.3405 11.0078 10.194 10.9622 10.0312 10.8711L2.59961 6.61328C2.55404 6.58724 2.53125 6.55469 2.53125 6.51562C2.53125 6.48307 2.55404 6.45378 2.59961 6.42773L10.0312 2.16992C10.194 2.07878 10.3405 2.0332 10.4707 2.0332C10.5944 2.0332 10.7376 2.07878 10.9004 2.16992L18.332 6.42773C18.3841 6.45378 18.4102 6.48307 18.4102 6.51562C18.4102 6.55469 18.3841 6.58724 18.332 6.61328L10.9004 10.8711C10.7376 10.9622 10.5944 11.0078 10.4707 11.0078Z" fill="#03134D" fill-opacity="0.4"/>
</svg>
