<svg width="108" height="23" viewBox="0 0 108 23" fill="none" xmlns="http://www.w3.org/2000/svg">
<rect width="108" height="23" rx="11.5" fill="#CFFAA4"/>
<path d="M21.54 15H22.776L20.664 11.22C21.648 10.872 22.308 10.032 22.308 8.712C22.308 6.924 21.096 6.024 19.548 6.024H16.08V15H17.184V11.4H19.524L21.54 15ZM17.172 10.428V6.996H19.416C20.364 6.996 21.18 7.536 21.18 8.712C21.18 9.888 20.364 10.428 19.416 10.428H17.172ZM29.5419 12.336V11.772C29.5419 9.96 28.4859 8.772 26.7339 8.772C24.9939 8.772 23.7219 9.948 23.7219 11.94C23.7219 13.932 25.0059 15.12 26.7579 15.12C28.1739 15.12 29.2299 14.292 29.4819 13.188L28.4499 13.128C28.2459 13.812 27.6339 14.22 26.7339 14.22C25.6539 14.22 24.8739 13.512 24.8139 12.336H29.5419ZM26.7219 9.672C27.8859 9.672 28.4859 10.428 28.5099 11.496H24.8139C24.8859 10.308 25.6659 9.672 26.7219 9.672ZM34.3758 8.772C33.3198 8.772 32.5518 9.252 32.2038 9.888V8.88H31.2198V18.06H32.2518V14.088C32.5998 14.676 33.3438 15.12 34.3758 15.12C36.0558 15.12 37.3278 13.92 37.3278 11.94C37.3278 9.972 36.0558 8.772 34.3758 8.772ZM34.2198 9.672C35.3838 9.672 36.2718 10.476 36.2718 11.952C36.2718 13.416 35.3838 14.22 34.2198 14.22C33.1038 14.22 32.2638 13.512 32.2638 12.132V11.772C32.2638 10.38 33.1038 9.672 34.2198 9.672ZM40.0448 15V5.676H39.0128V15H40.0448ZM42.6697 5.988C42.2977 5.988 41.9857 6.288 41.9857 6.672C41.9857 7.044 42.2857 7.344 42.6697 7.344C43.0417 7.344 43.3537 7.044 43.3537 6.672C43.3537 6.288 43.0417 5.988 42.6697 5.988ZM43.1737 15V8.88H42.1417V15H43.1737ZM50.6826 12.336V11.772C50.6826 9.96 49.6266 8.772 47.8746 8.772C46.1346 8.772 44.8626 9.948 44.8626 11.94C44.8626 13.932 46.1466 15.12 47.8986 15.12C49.3146 15.12 50.3706 14.292 50.6226 13.188L49.5906 13.128C49.3866 13.812 48.7746 14.22 47.8746 14.22C46.7946 14.22 46.0146 13.512 45.9546 12.336H50.6826ZM47.8626 9.672C49.0266 9.672 49.6266 10.428 49.6506 11.496H45.9546C46.0266 10.308 46.8066 9.672 47.8626 9.672ZM58.0484 15V5.676H57.0164V9.804C56.6804 9.216 55.9244 8.772 54.9044 8.772C53.2244 8.772 51.9524 9.972 51.9524 11.952C51.9524 13.92 53.2244 15.12 54.9044 15.12C55.9484 15.12 56.7284 14.64 57.0764 14.004V15H58.0484ZM55.0484 9.672C56.1764 9.672 57.0164 10.38 57.0164 11.76V12.12C57.0164 13.512 56.1764 14.22 55.0484 14.22C53.8844 14.22 52.9964 13.416 52.9964 11.94C52.9964 10.476 53.8844 9.672 55.0484 9.672ZM65.2688 5.916C63.6008 5.916 62.6408 6.924 62.6168 8.628L63.7088 8.688C63.7208 7.56 64.2488 6.888 65.2928 6.888C66.2408 6.888 66.7448 7.524 66.7448 8.472C66.7448 9.624 66.2888 10.272 65.2688 11.34L62.6408 14.112V15H67.9568V14.028H64.1408L66.0848 11.988C67.0928 10.932 67.8488 9.924 67.8488 8.424C67.8488 6.864 66.9248 5.916 65.2688 5.916ZM73.7063 11.892V6.024H72.7943L68.7263 11.976V12.876H72.6383V15H73.7063V12.876H75.2543V11.892H73.7063ZM69.9383 11.892L72.6383 7.992V11.892H69.9383ZM76.7868 13.692C76.4028 13.692 76.0908 14.016 76.0908 14.412C76.0908 14.796 76.4028 15.12 76.7868 15.12C77.1828 15.12 77.5068 14.796 77.5068 14.412C77.5068 14.016 77.1828 13.692 76.7868 13.692ZM81.9112 5.904C79.9432 5.904 78.6712 7.548 78.6712 10.512C78.6712 13.476 79.9432 15.12 81.9112 15.12C83.8552 15.12 85.1272 13.476 85.1272 10.512C85.1272 7.548 83.8552 5.904 81.9112 5.904ZM81.8992 6.888C83.2672 6.888 84.0232 8.136 84.0232 10.512C84.0232 12.888 83.2672 14.136 81.8992 14.136C80.5192 14.136 79.7872 12.888 79.7872 10.512C79.7872 8.136 80.5192 6.888 81.8992 6.888ZM91.9378 6.912V6.024H86.0338V6.996H90.7258L86.5138 15H87.7258L91.9378 6.912Z" fill="#03134D"/>
</svg>
