<svg width="54" height="20" viewBox="0 0 54 20" fill="none" xmlns="http://www.w3.org/2000/svg">
<path d="M9.54 13H10.776L8.664 9.22C9.648 8.872 10.308 8.032 10.308 6.712C10.308 4.924 9.096 4.024 7.548 4.024H4.08V13H5.184V9.4H7.524L9.54 13ZM5.172 8.428V4.996H7.416C8.364 4.996 9.18 5.536 9.18 6.712C9.18 7.888 8.364 8.428 7.416 8.428H5.172ZM17.5419 10.336V9.772C17.5419 7.96 16.4859 6.772 14.7339 6.772C12.9939 6.772 11.7219 7.948 11.7219 9.94C11.7219 11.932 13.0059 13.12 14.7579 13.12C16.1739 13.12 17.2299 12.292 17.4819 11.188L16.4499 11.128C16.2459 11.812 15.6339 12.22 14.7339 12.22C13.6539 12.22 12.8739 11.512 12.8139 10.336H17.5419ZM14.7219 7.672C15.8859 7.672 16.4859 8.428 16.5099 9.496H12.8139C12.8859 8.308 13.6659 7.672 14.7219 7.672ZM26.1198 6.772C25.1358 6.772 24.4278 7.276 24.0678 7.984C23.6958 7.216 22.9638 6.772 22.0638 6.772C21.1038 6.772 20.4918 7.24 20.2038 7.804V6.88H19.2198V13H20.2518V9.424C20.2518 8.5 20.8758 7.732 21.8478 7.732C22.7118 7.732 23.2998 8.392 23.2998 9.412V13H24.3438V9.28V9.208C24.4278 8.38 24.9918 7.732 25.8798 7.732C26.8038 7.732 27.3678 8.392 27.3678 9.412V13H28.3998V9.268C28.3998 7.78 27.4758 6.772 26.1198 6.772ZM33.1706 6.772C31.3946 6.772 30.0266 7.996 30.0266 9.94C30.0266 11.884 31.3946 13.12 33.1706 13.12C34.9466 13.12 36.3146 11.884 36.3146 9.94C36.3146 7.996 34.9466 6.772 33.1706 6.772ZM33.1706 7.672C34.3586 7.672 35.2706 8.512 35.2706 9.94C35.2706 11.368 34.3586 12.22 33.1706 12.22C31.9826 12.22 31.0706 11.368 31.0706 9.94C31.0706 8.512 31.9826 7.672 33.1706 7.672ZM40.3852 13L43.0252 6.88H41.8732L39.9772 11.44L38.0452 6.88H36.9052L39.5572 13H40.3852ZM49.4287 10.336V9.772C49.4287 7.96 48.3727 6.772 46.6207 6.772C44.8807 6.772 43.6087 7.948 43.6087 9.94C43.6087 11.932 44.8927 13.12 46.6447 13.12C48.0607 13.12 49.1167 12.292 49.3687 11.188L48.3367 11.128C48.1327 11.812 47.5207 12.22 46.6207 12.22C45.5407 12.22 44.7607 11.512 44.7007 10.336H49.4287ZM46.6087 7.672C47.7727 7.672 48.3727 8.428 48.3967 9.496H44.7007C44.7727 8.308 45.5527 7.672 46.6087 7.672Z" fill="#03134D" fill-opacity="0.6"/>
<path d="M54 18.5H0V19.5H54V18.5Z" fill="#03134D" fill-opacity="0.6"/>
</svg>
