<svg width="90" height="35" viewBox="0 0 90 35" fill="none" xmlns="http://www.w3.org/2000/svg">
<rect width="90" height="35" rx="8" fill="#B3B3B3"/>
<path d="M28.2167 11.904C26.1767 11.904 25.1807 13.08 25.1807 14.448C25.1807 16.152 26.4767 16.56 28.0847 16.944C29.5727 17.304 30.4607 17.544 30.4607 18.612C30.4607 19.704 29.5727 20.16 28.3847 20.16C27.1367 20.16 26.1647 19.5 26.0807 18.444L24.9767 18.504C25.0607 20.184 26.5007 21.12 28.3847 21.12C30.1367 21.12 31.5767 20.328 31.5767 18.528C31.5767 16.956 30.4127 16.464 28.4807 16.008C27.1367 15.708 26.2967 15.48 26.2967 14.412C26.2967 13.536 26.9567 12.864 28.2407 12.864C29.3687 12.864 30.1367 13.464 30.1967 14.472L31.3127 14.4C31.2407 12.816 29.9807 11.904 28.2167 11.904ZM38.2277 21V14.88H37.1957V18.456C37.1957 19.356 36.6197 20.148 35.6477 20.148C34.7237 20.148 34.2077 19.512 34.2077 18.516V14.88H33.1757V18.66C33.1757 20.124 34.0397 21.12 35.4077 21.12C36.4277 21.12 37.0157 20.58 37.2437 20.088V21H38.2277ZM41.3455 11.676H40.3135V21H41.2975V20.004C41.6455 20.64 42.4135 21.12 43.4695 21.12C45.1495 21.12 46.4215 19.92 46.4215 17.952C46.4215 15.972 45.1495 14.772 43.4695 14.772C42.4375 14.772 41.6935 15.216 41.3455 15.804V11.676ZM43.3135 15.672C44.4775 15.672 45.3655 16.476 45.3655 17.94C45.3655 19.416 44.4775 20.22 43.3135 20.22C42.1975 20.22 41.3575 19.512 41.3575 18.12V17.76C41.3575 16.38 42.1975 15.672 43.3135 15.672ZM55.0065 14.772C54.0225 14.772 53.3145 15.276 52.9545 15.984C52.5825 15.216 51.8505 14.772 50.9505 14.772C49.9905 14.772 49.3785 15.24 49.0905 15.804V14.88H48.1065V21H49.1385V17.424C49.1385 16.5 49.7625 15.732 50.7345 15.732C51.5985 15.732 52.1865 16.392 52.1865 17.412V21H53.2305V17.28V17.208C53.3145 16.38 53.8785 15.732 54.7665 15.732C55.6905 15.732 56.2545 16.392 56.2545 17.412V21H57.2865V17.268C57.2865 15.78 56.3625 14.772 55.0065 14.772ZM59.8493 11.988C59.4773 11.988 59.1653 12.288 59.1653 12.672C59.1653 13.044 59.4653 13.344 59.8493 13.344C60.2213 13.344 60.5333 13.044 60.5333 12.672C60.5333 12.288 60.2213 11.988 59.8493 11.988ZM60.3533 21V14.88H59.3213V21H60.3533ZM64.8023 20.148C64.2023 20.148 63.7223 19.848 63.7223 18.96L63.7463 15.78H65.3903V14.88H63.7463L63.7583 12.768H62.7143L62.7023 14.88H61.5623V15.78H62.7023L62.6903 19.164C62.6783 20.508 63.4583 21.084 64.5742 21.084C64.9583 21.084 65.1983 21.048 65.4023 21.012V20.088C65.2583 20.112 65.0543 20.148 64.8023 20.148Z" fill="white"/>
</svg>
