<svg width="105" height="23" viewBox="0 0 105 23" fill="none" xmlns="http://www.w3.org/2000/svg">
<rect width="105" height="23" rx="11.5" fill="#F2F2F2"/>
<path d="M33.16 7.024H32.068V12.616C32.068 14.284 31.108 15.136 29.584 15.136C28.036 15.136 27.1 14.284 27.1 12.616V7.024H26.008V12.628C26.008 14.884 27.4 16.12 29.584 16.12C31.756 16.12 33.16 14.884 33.16 12.628V7.024ZM38.1001 9.772C37.1281 9.772 36.4921 10.24 36.1921 10.792V9.88H35.2081V16H36.2401V12.424C36.2401 11.5 36.9121 10.732 37.8841 10.732C38.8081 10.732 39.4321 11.392 39.4321 12.412V16H40.4761V12.28C40.4761 10.744 39.4801 9.772 38.1001 9.772ZM44.6446 9.772C43.1566 9.772 42.2806 10.852 42.2806 11.908L43.3246 11.956C43.3246 11.308 43.7446 10.684 44.6566 10.684C45.5326 10.684 45.9406 11.248 45.9406 12.172V12.46L44.3566 12.556C43.0726 12.628 42.1126 13.108 42.1126 14.38C42.1126 15.496 42.9286 16.12 44.1166 16.12C44.8726 16.12 45.4966 15.808 45.9406 15.28V16H46.9846V12.148C46.9846 10.636 46.1566 9.772 44.6446 9.772ZM45.9526 13.288V13.54C45.9526 14.764 45.1966 15.232 44.2726 15.232C43.6246 15.232 43.1566 15.004 43.1566 14.356C43.1566 13.684 43.6966 13.432 44.4886 13.384L45.9526 13.288ZM51.9165 9.772C50.9445 9.772 50.3085 10.24 50.0085 10.792V9.88H49.0245V16H50.0565V12.424C50.0565 11.5 50.7285 10.732 51.7005 10.732C52.6245 10.732 53.2485 11.392 53.2485 12.412V16H54.2925V12.28C54.2925 10.744 53.2965 9.772 51.9165 9.772ZM58.221 9.784C56.781 9.772 55.977 10.504 55.977 11.572C55.977 12.772 56.865 13 58.053 13.276C59.157 13.54 59.565 13.684 59.565 14.308C59.565 14.92 59.037 15.22 58.305 15.22C57.489 15.22 56.985 14.86 56.889 14.188L55.857 14.26C56.013 15.436 56.901 16.12 58.281 16.12C59.697 16.12 60.597 15.436 60.597 14.224C60.597 13.132 59.769 12.772 58.473 12.46C57.597 12.256 57.021 12.208 57.021 11.56C57.021 11.02 57.405 10.66 58.185 10.672C58.965 10.66 59.361 11.068 59.433 11.68L60.465 11.62C60.333 10.564 59.589 9.772 58.221 9.784ZM68.6733 16L71.0013 9.88H69.8853L68.2293 14.32L66.5613 9.88H65.8293L64.1733 14.32L62.5293 9.88H61.4013L63.7293 16H64.5573L66.2013 11.62L67.8453 16H68.6733ZM77.4052 13.336V12.772C77.4052 10.96 76.3492 9.772 74.5972 9.772C72.8572 9.772 71.5852 10.948 71.5852 12.94C71.5852 14.932 72.8692 16.12 74.6212 16.12C76.0372 16.12 77.0932 15.292 77.3452 14.188L76.3132 14.128C76.1092 14.812 75.4972 15.22 74.5972 15.22C73.5172 15.22 72.7372 14.512 72.6772 13.336H77.4052ZM74.5852 10.672C75.7492 10.672 76.3492 11.428 76.3732 12.496H72.6772C72.7492 11.308 73.5292 10.672 74.5852 10.672ZM81.8911 9.808C80.8831 9.808 80.3071 10.3 80.0911 10.804V9.88H79.0831V16H80.1151V12.484C80.1151 11.548 80.7991 10.804 81.8911 10.804V9.808ZM88.5029 13.336V12.772C88.5029 10.96 87.4469 9.772 85.6949 9.772C83.9549 9.772 82.6829 10.948 82.6829 12.94C82.6829 14.932 83.9669 16.12 85.7189 16.12C87.1349 16.12 88.1909 15.292 88.4429 14.188L87.4109 14.128C87.2069 14.812 86.5949 15.22 85.6949 15.22C84.6149 15.22 83.8349 14.512 83.7749 13.336H88.5029ZM85.6829 10.672C86.8469 10.672 87.4469 11.428 87.4709 12.496H83.7749C83.8469 11.308 84.6269 10.672 85.6829 10.672ZM95.8687 16V6.676H94.8367V10.804C94.5007 10.216 93.7447 9.772 92.7247 9.772C91.0447 9.772 89.7727 10.972 89.7727 12.952C89.7727 14.92 91.0447 16.12 92.7247 16.12C93.7687 16.12 94.5487 15.64 94.8967 15.004V16H95.8687ZM92.8687 10.672C93.9967 10.672 94.8367 11.38 94.8367 12.76V13.12C94.8367 14.512 93.9967 15.22 92.8687 15.22C91.7047 15.22 90.8167 14.416 90.8167 12.94C90.8167 11.476 91.7047 10.672 92.8687 10.672Z" fill="black"/>
<circle cx="15.5" cy="11" r="5.5" fill="#F45E3E"/>
</svg>
