<svg width="72" height="26" viewBox="0 0 72 26" fill="none" xmlns="http://www.w3.org/2000/svg">
<path d="M34.504 17L29.496 5.032H28.248L23.24 17H24.84L26.104 13.96H31.656L32.904 17H34.504ZM26.648 12.68L28.888 7.288L31.112 12.68H26.648ZM39.4734 8.696C37.1694 8.696 35.4574 10.232 35.4574 12.92C35.4574 15.608 37.1854 17.16 39.4734 17.16C41.4414 17.16 42.8494 16.04 43.1534 14.232L41.8094 14.104C41.6174 15.256 40.7534 15.96 39.4734 15.96C37.9854 15.96 36.8654 14.872 36.8654 12.92C36.8654 10.984 37.9534 9.88 39.4734 9.88C40.7054 9.88 41.6494 10.632 41.7934 11.864L43.1374 11.752C42.8974 9.848 41.3934 8.696 39.4734 8.696ZM48.3874 15.864C47.5874 15.864 46.9474 15.464 46.9474 14.28L46.9794 10.04H49.1714V8.84H46.9794L46.9954 6.024H45.6034L45.5874 8.84H44.0674V10.04H45.5874L45.5714 14.552C45.5554 16.344 46.5954 17.112 48.0834 17.112C48.5954 17.112 48.9154 17.064 49.1874 17.016V15.784C48.9954 15.816 48.7234 15.864 48.3874 15.864ZM51.6741 4.984C51.1781 4.984 50.7621 5.384 50.7621 5.896C50.7621 6.392 51.1621 6.792 51.6741 6.792C52.1701 6.792 52.5861 6.392 52.5861 5.896C52.5861 5.384 52.1701 4.984 51.6741 4.984ZM52.3461 17V8.84H50.9701V17H52.3461ZM58.55 17L62.07 8.84H60.534L58.006 14.92L55.43 8.84H53.91L57.446 17H58.55ZM70.608 13.448V12.696C70.608 10.28 69.2 8.696 66.864 8.696C64.544 8.696 62.848 10.264 62.848 12.92C62.848 15.576 64.56 17.16 66.896 17.16C68.784 17.16 70.192 16.056 70.528 14.584L69.152 14.504C68.88 15.416 68.064 15.96 66.864 15.96C65.424 15.96 64.384 15.016 64.304 13.448H70.608ZM66.848 9.896C68.4 9.896 69.2 10.904 69.232 12.328H64.304C64.4 10.744 65.44 9.896 66.848 9.896Z" fill="black"/>
<circle cx="6" cy="12" r="6" fill="#B2F76E"/>
</svg>
