<svg width="20" height="21" viewBox="0 0 20 21" fill="none" xmlns="http://www.w3.org/2000/svg">
<path d="M0.488281 10.5391C0.488281 10.8281 0.589844 11.0742 0.792969 11.2773C1.00391 11.4805 1.25 11.582 1.53125 11.582H9.11328V19.1641C9.11328 19.4453 9.21484 19.6875 9.41797 19.8906C9.62109 20.1016 9.86719 20.207 10.1562 20.207C10.4453 20.207 10.6914 20.1016 10.8945 19.8906C11.1055 19.6875 11.2109 19.4453 11.2109 19.1641V11.582H18.7812C19.0625 11.582 19.3047 11.4805 19.5078 11.2773C19.7188 11.0742 19.8242 10.8281 19.8242 10.5391C19.8242 10.25 19.7188 10.0039 19.5078 9.80078C19.3047 9.58984 19.0625 9.48438 18.7812 9.48438H11.2109V1.91406C11.2109 1.63281 11.1055 1.39062 10.8945 1.1875C10.6914 0.976562 10.4453 0.871094 10.1562 0.871094C9.86719 0.871094 9.62109 0.976562 9.41797 1.1875C9.21484 1.39062 9.11328 1.63281 9.11328 1.91406V9.48438H1.53125C1.25 9.48438 1.00391 9.58984 0.792969 9.80078C0.589844 10.0039 0.488281 10.25 0.488281 10.5391Z" fill="white"/>
</svg>
