<svg width="8" height="15" viewBox="0 0 8 15" fill="none" xmlns="http://www.w3.org/2000/svg">
<path d="M7.97656 7.85938C7.97656 7.72396 7.95052 7.59896 7.89844 7.48438C7.84635 7.36979 7.76823 7.26042 7.66406 7.15625L1.57812 1.20312C1.40625 1.03125 1.19271 0.945312 0.9375 0.945312C0.770833 0.945312 0.617188 0.986979 0.476562 1.07031C0.335938 1.14844 0.223958 1.25521 0.140625 1.39062C0.0625 1.52604 0.0234375 1.67969 0.0234375 1.85156C0.0234375 2.09635 0.117188 2.3151 0.304688 2.50781L5.78906 7.85938L0.304688 13.2109C0.117188 13.4036 0.0234375 13.625 0.0234375 13.875C0.0234375 14.0417 0.0625 14.1927 0.140625 14.3281C0.223958 14.4688 0.335938 14.5781 0.476562 14.6562C0.617188 14.7396 0.770833 14.7812 0.9375 14.7812C1.19271 14.7812 1.40625 14.6927 1.57812 14.5156L7.66406 8.5625C7.76823 8.45833 7.84635 8.34896 7.89844 8.23438C7.95052 8.11979 7.97656 7.99479 7.97656 7.85938Z" fill="#03134D" fill-opacity="0.4"/>
</svg>
