<svg width="48" height="48" viewBox="0 0 48 48" fill="none" xmlns="http://www.w3.org/2000/svg">
<path d="M12.4844 30.9844C12.4844 31.4141 12.6406 31.7578 12.9531 32.0156C13.2656 32.2734 13.6992 32.4023 14.2539 32.4023H19.1992C19.2305 33.1602 19.4336 33.8594 19.8086 34.5C20.1914 35.1406 20.7031 35.6562 21.3438 36.0469C21.9844 36.4453 22.7148 36.6445 23.5352 36.6445C24.3633 36.6445 25.0977 36.4492 25.7383 36.0586C26.3789 35.668 26.8867 35.1484 27.2617 34.5C27.6445 33.8594 27.8516 33.1602 27.8828 32.4023H32.8281C33.3828 32.4023 33.8164 32.2734 34.1289 32.0156C34.4414 31.7578 34.5977 31.4141 34.5977 30.9844C34.5977 30.5938 34.4844 30.2148 34.2578 29.8477C34.0312 29.4805 33.7461 29.1211 33.4023 28.7695C33.0664 28.418 32.7305 28.0664 32.3945 27.7148C32.1367 27.4492 31.9336 27.1016 31.7852 26.6719C31.6445 26.2422 31.5391 25.7852 31.4688 25.3008C31.3984 24.8164 31.3477 24.3477 31.3164 23.8945C31.293 22.3555 31.1289 21.0039 30.8242 19.8398C30.5273 18.668 30.0625 17.6914 29.4297 16.9102C28.7969 16.1289 27.9609 15.5508 26.9219 15.1758C26.7266 14.4102 26.3281 13.7617 25.7266 13.2305C25.1328 12.6992 24.4023 12.4336 23.5352 12.4336C22.6758 12.4336 21.9453 12.6992 21.3438 13.2305C20.75 13.7617 20.3555 14.4102 20.1602 15.1758C19.1211 15.5508 18.2812 16.1289 17.6406 16.9102C17.0078 17.6914 16.543 18.668 16.2461 19.8398C15.9492 21.0039 15.7891 22.3555 15.7656 23.8945C15.7344 24.3477 15.6836 24.8164 15.6133 25.3008C15.543 25.7852 15.4336 26.2422 15.2852 26.6719C15.1445 27.1016 14.9453 27.4492 14.6875 27.7148C14.3516 28.0664 14.0117 28.418 13.668 28.7695C13.332 29.1211 13.0508 29.4805 12.8242 29.8477C12.5977 30.2148 12.4844 30.5938 12.4844 30.9844ZM14.7578 30.6328V30.4922C14.8281 30.3828 14.9453 30.2383 15.1094 30.0586C15.2734 29.8711 15.457 29.668 15.6602 29.4492C15.8711 29.2305 16.0781 29.0078 16.2812 28.7812C16.4922 28.5469 16.6758 28.2773 16.832 27.9727C16.9883 27.6602 17.1211 27.3086 17.2305 26.918C17.3398 26.5273 17.4258 26.0938 17.4883 25.6172C17.5508 25.1406 17.5977 24.6172 17.6289 24.0469C17.6602 22.3438 17.8359 20.9922 18.1562 19.9922C18.4766 18.9922 18.9023 18.25 19.4336 17.7656C19.9727 17.2734 20.5781 16.9336 21.25 16.7461C21.3984 16.7148 21.5117 16.6602 21.5898 16.582C21.668 16.4961 21.7109 16.3789 21.7188 16.2305C21.7422 15.6211 21.9141 15.125 22.2344 14.7422C22.5625 14.3516 22.9961 14.1562 23.5352 14.1562C24.082 14.1562 24.5156 14.3516 24.8359 14.7422C25.1641 15.125 25.3398 15.6211 25.3633 16.2305C25.3633 16.3789 25.4023 16.4961 25.4805 16.582C25.5664 16.6602 25.6797 16.7148 25.8203 16.7461C26.4922 16.9336 27.0938 17.2734 27.625 17.7656C28.1641 18.25 28.5938 18.9922 28.9141 19.9922C29.2422 20.9922 29.4219 22.3438 29.4531 24.0469C29.4766 24.6172 29.5195 25.1406 29.582 25.6172C29.6523 26.0938 29.7383 26.5273 29.8398 26.918C29.9492 27.3086 30.082 27.6602 30.2383 27.9727C30.3945 28.2773 30.5781 28.5469 30.7891 28.7812C31 29.0078 31.207 29.2305 31.4102 29.4492C31.6211 29.668 31.8047 29.8711 31.9609 30.0586C32.125 30.2383 32.2422 30.3828 32.3125 30.4922V30.6328H14.7578ZM21.0273 32.4023H26.0547C26.0078 33.1992 25.7539 33.8281 25.293 34.2891C24.832 34.7578 24.2461 34.9922 23.5352 34.9922C22.832 34.9922 22.2461 34.7578 21.7773 34.2891C21.3164 33.8281 21.0664 33.1992 21.0273 32.4023Z" fill="black"/>
</svg>
