<svg width="38" height="38" viewBox="0 0 38 38" fill="none" xmlns="http://www.w3.org/2000/svg">
<rect x="1" y="1" width="36" height="36" rx="8" fill="white"/>
<path d="M10.9434 18.9492C10.9434 19.1901 11.028 19.3952 11.1973 19.5645C11.373 19.7337 11.5781 19.8184 11.8125 19.8184H18.1309V26.1367C18.1309 26.3711 18.2155 26.5729 18.3848 26.7422C18.554 26.918 18.7591 27.0059 19 27.0059C19.2409 27.0059 19.446 26.918 19.6152 26.7422C19.791 26.5729 19.8789 26.3711 19.8789 26.1367V19.8184H26.1875C26.4219 19.8184 26.6237 19.7337 26.793 19.5645C26.9688 19.3952 27.0566 19.1901 27.0566 18.9492C27.0566 18.7083 26.9688 18.5033 26.793 18.334C26.6237 18.1582 26.4219 18.0703 26.1875 18.0703H19.8789V11.7617C19.8789 11.5273 19.791 11.3255 19.6152 11.1562C19.446 10.9805 19.2409 10.8926 19 10.8926C18.7591 10.8926 18.554 10.9805 18.3848 11.1562C18.2155 11.3255 18.1309 11.5273 18.1309 11.7617V18.0703H11.8125C11.5781 18.0703 11.373 18.1582 11.1973 18.334C11.028 18.5033 10.9434 18.7083 10.9434 18.9492Z" fill="#03134D"/>
<rect x="1" y="1" width="36" height="36" rx="8" stroke="#03134D"/>
</svg>
