<svg width="10" height="10" viewBox="0 0 10 10" fill="none" xmlns="http://www.w3.org/2000/svg">
<path d="M0.646484 9.26953C0.716797 9.33594 0.796875 9.38086 0.886719 9.4043C0.976562 9.42773 1.06641 9.42773 1.15625 9.4043C1.24609 9.38086 1.32422 9.33594 1.39062 9.26953L5.14062 5.51953L8.89062 9.26953C8.95703 9.33594 9.03516 9.38086 9.125 9.4043C9.21484 9.42773 9.30469 9.42773 9.39453 9.4043C9.48828 9.38477 9.56836 9.33984 9.63477 9.26953C9.70117 9.20312 9.74414 9.125 9.76367 9.03516C9.78711 8.94531 9.78711 8.85547 9.76367 8.76562C9.74414 8.67578 9.70117 8.59766 9.63477 8.53125L5.88477 4.77539L9.63477 1.02539C9.70117 0.958984 9.74609 0.880859 9.76953 0.791016C9.79297 0.701172 9.79297 0.611328 9.76953 0.521484C9.74609 0.431641 9.70117 0.353516 9.63477 0.287109C9.56445 0.216797 9.48438 0.171875 9.39453 0.152344C9.30469 0.128906 9.21484 0.128906 9.125 0.152344C9.03516 0.171875 8.95703 0.216797 8.89062 0.287109L5.14062 4.03711L1.39062 0.287109C1.32422 0.216797 1.24414 0.171875 1.15039 0.152344C1.06055 0.128906 0.970703 0.128906 0.880859 0.152344C0.791016 0.171875 0.712891 0.216797 0.646484 0.287109C0.580078 0.353516 0.535156 0.431641 0.511719 0.521484C0.492188 0.611328 0.492188 0.701172 0.511719 0.791016C0.535156 0.880859 0.580078 0.958984 0.646484 1.02539L4.39648 4.77539L0.646484 8.53125C0.580078 8.59766 0.535156 8.67578 0.511719 8.76562C0.488281 8.85547 0.486328 8.94531 0.505859 9.03516C0.529297 9.125 0.576172 9.20312 0.646484 9.26953Z" fill="black" fill-opacity="0.5"/>
</svg>
