<svg width="81" height="23" viewBox="0 0 81 23" fill="none" xmlns="http://www.w3.org/2000/svg">
<rect width="81" height="23" rx="11.5" fill="#F2F2F2"/>
<path d="M31.636 7.996V7.024H26.08V16H27.184V11.908H30.892V10.936H27.184V7.996H31.636ZM37.7863 16V9.88H36.7543V13.456C36.7543 14.356 36.1783 15.148 35.2063 15.148C34.2823 15.148 33.7663 14.512 33.7663 13.516V9.88H32.7343V13.66C32.7343 15.124 33.5983 16.12 34.9663 16.12C35.9863 16.12 36.5743 15.58 36.8023 15.088V16H37.7863ZM40.9041 16V6.676H39.8721V16H40.9041ZM45.461 6.628C44.141 6.628 43.289 7.456 43.289 8.86V9.88H42.101V10.78H43.289V16H44.321V10.78H45.893V9.88H44.321V8.836C44.321 8.008 44.825 7.528 45.569 7.528C45.725 7.528 45.821 7.54 45.917 7.552V6.652C45.785 6.64 45.665 6.628 45.461 6.628ZM47.645 6.988C47.273 6.988 46.961 7.288 46.961 7.672C46.961 8.044 47.261 8.344 47.645 8.344C48.017 8.344 48.329 8.044 48.329 7.672C48.329 7.288 48.017 6.988 47.645 6.988ZM48.149 16V9.88H47.117V16H48.149ZM51.2752 16V6.676H50.2432V16H51.2752ZM54.4041 16V6.676H53.3721V16H54.4041ZM61.913 13.336V12.772C61.913 10.96 60.857 9.772 59.105 9.772C57.365 9.772 56.093 10.948 56.093 12.94C56.093 14.932 57.377 16.12 59.129 16.12C60.545 16.12 61.601 15.292 61.853 14.188L60.821 14.128C60.617 14.812 60.005 15.22 59.105 15.22C58.025 15.22 57.245 14.512 57.185 13.336H61.913ZM59.093 10.672C60.257 10.672 60.857 11.428 60.881 12.496H57.185C57.257 11.308 58.037 10.672 59.093 10.672ZM69.2789 16V6.676H68.2469V10.804C67.9109 10.216 67.1549 9.772 66.1349 9.772C64.4549 9.772 63.1829 10.972 63.1829 12.952C63.1829 14.92 64.4549 16.12 66.1349 16.12C67.1789 16.12 67.9589 15.64 68.3069 15.004V16H69.2789ZM66.2789 10.672C67.4069 10.672 68.2469 11.38 68.2469 12.76V13.12C68.2469 14.512 67.4069 15.22 66.2789 15.22C65.1149 15.22 64.2269 14.416 64.2269 12.94C64.2269 11.476 65.1149 10.672 66.2789 10.672Z" fill="black"/>
<circle cx="15.5" cy="12.5" r="5.5" fill="#808080"/>
</svg>
