<svg width="135" height="32" viewBox="0 0 135 32" fill="none" xmlns="http://www.w3.org/2000/svg">
<path d="M11.3647 13.5248C9.46866 11.6288 9.46866 8.55478 11.3647 6.65878C13.2607 4.76277 16.3347 4.76277 18.2307 6.65878L27.7945 16.2226L20.9285 23.0886L11.3647 13.5248Z" fill="#2402FF"/>
<path d="M17.9771 13.5248C19.8731 11.6288 19.8731 8.55478 17.9771 6.65878C16.0811 4.76277 13.0071 4.76277 11.1111 6.65878L1.61312 16.1568L8.47916 23.0228L17.9771 13.5248Z" fill="#0264FF"/>
<path d="M55.9566 8.7035C53.8934 8.7035 52.4669 9.72239 51.7027 11.0724C50.8622 9.54409 49.3593 8.7035 47.5508 8.7035C45.6404 8.7035 44.4432 9.51861 43.7809 10.6649V8.93275H41.0808V22H43.9337V14.5366C43.9337 12.7281 45.1054 11.3526 46.914 11.3526C48.4678 11.3526 49.5376 12.5498 49.5376 14.5112V22H52.416V14.1291V14.0527C52.5943 12.4989 53.6132 11.3526 55.2434 11.3526C56.9755 11.3526 57.9689 12.5498 57.9689 14.5112V22H60.8473V14.0781C60.8473 10.8432 58.8859 8.7035 55.9566 8.7035ZM69.5745 8.7035C66.314 8.7035 64.3782 11.0215 64.3782 13.314L67.2565 13.4159C67.2565 12.2441 67.9697 11.1998 69.6 11.1998C71.2047 11.1998 71.9179 12.2441 71.9179 13.9253V14.3074L68.8103 14.4857C66.1357 14.6385 64.0215 15.6319 64.0215 18.4339C64.0215 20.8792 65.7791 22.2547 68.3773 22.2547C69.8292 22.2547 71.0009 21.6943 71.9179 20.8283V22H74.7963V13.8744C74.7963 10.5375 72.9368 8.7035 69.5745 8.7035ZM71.9434 16.5235V16.982C71.9434 18.9688 70.6698 19.8603 68.8613 19.8603C67.715 19.8603 66.8999 19.4783 66.8999 18.3829C66.8999 17.2112 67.8678 16.7782 69.2179 16.7018L71.9434 16.5235ZM85.2871 8.77992C83.1983 8.77992 82.0521 9.74786 81.5681 10.7668V8.93275H78.7916V22H81.6445V14.8933C81.6445 12.9828 83.0455 11.5564 85.2871 11.5564V8.77992ZM93.7741 2.08073C90.7429 2.08073 88.7815 3.99114 88.7815 7.12422V8.93275H86.3107V11.4036H88.7815V22H91.6344V11.4036H94.8439V8.93275H91.6344V7.04781C91.6344 5.51948 92.6278 4.577 94.0798 4.577C94.4364 4.577 94.6656 4.60248 94.8949 4.62795V2.15714C94.5637 2.1062 94.2581 2.08073 93.7741 2.08073ZM102.037 8.7035C98.7762 8.7035 96.8403 11.0215 96.8403 13.314L99.7187 13.4159C99.7187 12.2441 100.432 11.1998 102.062 11.1998C103.667 11.1998 104.38 12.2441 104.38 13.9253V14.3074L101.272 14.4857C98.5979 14.6385 96.4837 15.6319 96.4837 18.4339C96.4837 20.8792 98.2413 22.2547 100.839 22.2547C102.291 22.2547 103.463 21.6943 104.38 20.8283V22H107.258V13.8744C107.258 10.5375 105.399 8.7035 102.037 8.7035ZM104.406 16.5235V16.982C104.406 18.9688 103.132 19.8603 101.323 19.8603C100.177 19.8603 99.3621 19.4783 99.3621 18.3829C99.3621 17.2112 100.33 16.7782 101.68 16.7018L104.406 16.5235ZM116.883 2.08073C113.852 2.08073 111.891 3.99114 111.891 7.12422V8.93275H109.42V11.4036H111.891V22H114.743V11.4036H117.953V8.93275H114.743V7.04781C114.743 5.51948 115.737 4.577 117.189 4.577C117.545 4.577 117.775 4.60248 118.004 4.62795V2.15714C117.673 2.1062 117.367 2.08073 116.883 2.08073ZM125.146 8.7035C121.885 8.7035 119.949 11.0215 119.949 13.314L122.828 13.4159C122.828 12.2441 123.541 11.1998 125.171 11.1998C126.776 11.1998 127.489 12.2441 127.489 13.9253V14.3074L124.382 14.4857C121.707 14.6385 119.593 15.6319 119.593 18.4339C119.593 20.8792 121.35 22.2547 123.949 22.2547C125.4 22.2547 126.572 21.6943 127.489 20.8283V22H130.368V13.8744C130.368 10.5375 128.508 8.7035 125.146 8.7035ZM127.515 16.5235V16.982C127.515 18.9688 126.241 19.8603 124.432 19.8603C123.286 19.8603 122.471 19.4783 122.471 18.3829C122.471 17.2112 123.439 16.7782 124.789 16.7018L127.515 16.5235Z" fill="#03134D"/>
</svg>
