<svg width="19" height="19" viewBox="0 0 19 19" fill="none" xmlns="http://www.w3.org/2000/svg">
<path d="M2.85547 9.1582H7.30859C7.92708 9.1582 8.39258 9.00195 8.70508 8.68945C9.01758 8.37044 9.17383 7.88867 9.17383 7.24414V2.87891C9.17383 2.23438 9.01758 1.75586 8.70508 1.44336C8.39258 1.13086 7.92708 0.974609 7.30859 0.974609H2.85547C2.23698 0.974609 1.77148 1.13086 1.45898 1.44336C1.14648 1.75586 0.990234 2.23438 0.990234 2.87891V7.24414C0.990234 7.88867 1.14648 8.37044 1.45898 8.68945C1.77148 9.00195 2.23698 9.1582 2.85547 9.1582ZM2.875 7.78125C2.70573 7.78125 2.57878 7.73568 2.49414 7.64453C2.40951 7.55339 2.36719 7.41992 2.36719 7.24414V2.87891C2.36719 2.70312 2.40951 2.57292 2.49414 2.48828C2.57878 2.39714 2.70573 2.35156 2.875 2.35156H7.2793C7.44857 2.35156 7.57552 2.39714 7.66016 2.48828C7.7513 2.57292 7.79688 2.70312 7.79688 2.87891V7.24414C7.79688 7.41992 7.7513 7.55339 7.66016 7.64453C7.57552 7.73568 7.44857 7.78125 7.2793 7.78125H2.875ZM12.6602 9.1582H17.1035C17.722 9.1582 18.1875 9.00195 18.5 8.68945C18.8125 8.37044 18.9688 7.88867 18.9688 7.24414V2.87891C18.9688 2.23438 18.8125 1.75586 18.5 1.44336C18.1875 1.13086 17.722 0.974609 17.1035 0.974609H12.6602C12.0352 0.974609 11.5664 1.13086 11.2539 1.44336C10.9414 1.75586 10.7852 2.23438 10.7852 2.87891V7.24414C10.7852 7.88867 10.9414 8.37044 11.2539 8.68945C11.5664 9.00195 12.0352 9.1582 12.6602 9.1582ZM12.6797 7.78125C12.5039 7.78125 12.3737 7.73568 12.2891 7.64453C12.2044 7.55339 12.1621 7.41992 12.1621 7.24414V2.87891C12.1621 2.70312 12.2044 2.57292 12.2891 2.48828C12.3737 2.39714 12.5039 2.35156 12.6797 2.35156H17.084C17.2598 2.35156 17.3867 2.39714 17.4648 2.48828C17.5495 2.57292 17.5918 2.70312 17.5918 2.87891V7.24414C17.5918 7.41992 17.5495 7.55339 17.4648 7.64453C17.3867 7.73568 17.2598 7.78125 17.084 7.78125H12.6797ZM2.85547 18.9531H7.30859C7.92708 18.9531 8.39258 18.7969 8.70508 18.4844C9.01758 18.1719 9.17383 17.6934 9.17383 17.0488V12.6738C9.17383 12.0358 9.01758 11.5605 8.70508 11.248C8.39258 10.929 7.92708 10.7695 7.30859 10.7695H2.85547C2.23698 10.7695 1.77148 10.929 1.45898 11.248C1.14648 11.5605 0.990234 12.0358 0.990234 12.6738V17.0488C0.990234 17.6934 1.14648 18.1719 1.45898 18.4844C1.77148 18.7969 2.23698 18.9531 2.85547 18.9531ZM2.875 17.5762C2.70573 17.5762 2.57878 17.5306 2.49414 17.4395C2.40951 17.3548 2.36719 17.2246 2.36719 17.0488V12.6836C2.36719 12.5013 2.40951 12.3678 2.49414 12.2832C2.57878 12.1921 2.70573 12.1465 2.875 12.1465H7.2793C7.44857 12.1465 7.57552 12.1921 7.66016 12.2832C7.7513 12.3678 7.79688 12.5013 7.79688 12.6836V17.0488C7.79688 17.2246 7.7513 17.3548 7.66016 17.4395C7.57552 17.5306 7.44857 17.5762 7.2793 17.5762H2.875ZM12.6602 18.9531H17.1035C17.722 18.9531 18.1875 18.7969 18.5 18.4844C18.8125 18.1719 18.9688 17.6934 18.9688 17.0488V12.6738C18.9688 12.0358 18.8125 11.5605 18.5 11.248C18.1875 10.929 17.722 10.7695 17.1035 10.7695H12.6602C12.0352 10.7695 11.5664 10.929 11.2539 11.248C10.9414 11.5605 10.7852 12.0358 10.7852 12.6738V17.0488C10.7852 17.6934 10.9414 18.1719 11.2539 18.4844C11.5664 18.7969 12.0352 18.9531 12.6602 18.9531ZM12.6797 17.5762C12.5039 17.5762 12.3737 17.5306 12.2891 17.4395C12.2044 17.3548 12.1621 17.2246 12.1621 17.0488V12.6836C12.1621 12.5013 12.2044 12.3678 12.2891 12.2832C12.3737 12.1921 12.5039 12.1465 12.6797 12.1465H17.084C17.2598 12.1465 17.3867 12.1921 17.4648 12.2832C17.5495 12.3678 17.5918 12.5013 17.5918 12.6836V17.0488C17.5918 17.2246 17.5495 17.3548 17.4648 17.4395C17.3867 17.5306 17.2598 17.5762 17.084 17.5762H12.6797Z" fill="#03134D" fill-opacity="0.4"/>
</svg>
