<svg width="22" height="19" viewBox="0 0 22 19" fill="none" xmlns="http://www.w3.org/2000/svg">
<path d="M0.921875 12.625C1.09115 12.7943 1.30599 12.9147 1.56641 12.9863C1.83333 13.0579 2.11328 13.0612 2.40625 12.9961C2.70573 12.931 2.98568 12.7812 3.24609 12.5469C3.3112 12.4883 3.39583 12.4069 3.5 12.3027C3.60417 12.1986 3.73112 12.0716 3.88086 11.9219C4.0306 11.7656 4.20638 11.5866 4.4082 11.3848C4.61003 11.1764 4.84115 10.9421 5.10156 10.6816C6.34505 9.41862 7.47786 8.2793 8.5 7.26367C9.52865 6.24154 10.4271 5.38216 11.1953 4.68555C11.9701 3.98242 12.6016 3.47786 13.0898 3.17188C13.5781 2.85938 13.9102 2.78125 14.0859 2.9375C14.2227 3.0612 14.2324 3.29557 14.1152 3.64062C14.0046 3.97917 13.8027 4.39258 13.5098 4.88086C13.2168 5.36263 12.875 5.88672 12.4844 6.45312C12.0938 7.01302 11.6934 7.57617 11.2832 8.14258C10.6712 9.00195 10.0918 9.80924 9.54492 10.5645C9.00456 11.3132 8.53255 12.013 8.12891 12.6641C7.72526 13.3151 7.41602 13.9173 7.20117 14.4707C6.99284 15.0241 6.91146 15.5319 6.95703 15.9941C7.0026 16.4499 7.20768 16.8568 7.57227 17.2148C8.05404 17.7031 8.63346 17.8822 9.31055 17.752C9.98763 17.6283 10.7754 17.2507 11.6738 16.6191C12.5788 15.9876 13.6139 15.1641 14.7793 14.1484C15.4303 13.569 16.0195 13.0514 16.5469 12.5957C17.0807 12.1335 17.5267 11.7917 17.8848 11.5703C18.2493 11.349 18.5033 11.3132 18.6465 11.4629C18.7572 11.5671 18.7832 11.7266 18.7246 11.9414C18.666 12.1562 18.5488 12.4264 18.373 12.752C18.1973 13.0775 17.9857 13.4518 17.7383 13.875C17.5039 14.2786 17.2663 14.6855 17.0254 15.0957C16.791 15.5059 16.6022 15.9095 16.459 16.3066C16.3158 16.6973 16.2572 17.0651 16.2832 17.4102C16.3092 17.7617 16.4622 18.0807 16.7422 18.3672C17.1328 18.7578 17.6895 18.8522 18.4121 18.6504C19.1413 18.4486 19.9714 17.8919 20.9023 16.9805C21.0651 16.8177 21.1628 16.6484 21.1953 16.4727C21.2279 16.2969 21.179 16.1439 21.0488 16.0137C20.9251 15.89 20.7819 15.8346 20.6191 15.8477C20.4564 15.8607 20.3099 15.929 20.1797 16.0527C19.724 16.4954 19.3236 16.8405 18.9785 17.0879C18.64 17.3353 18.3633 17.4948 18.1484 17.5664C17.9336 17.6445 17.7871 17.6445 17.709 17.5664C17.6178 17.4818 17.6081 17.3255 17.6797 17.0977C17.7513 16.8698 17.8913 16.5605 18.0996 16.1699C18.3145 15.7728 18.5879 15.2812 18.9199 14.6953C19.2324 14.1419 19.5026 13.6374 19.7305 13.1816C19.9583 12.7259 20.1211 12.3125 20.2188 11.9414C20.3229 11.5638 20.3424 11.222 20.2773 10.916C20.2188 10.61 20.056 10.3268 19.7891 10.0664C19.4375 9.72135 19.0566 9.54557 18.6465 9.53906C18.2428 9.53255 17.7936 9.66927 17.2988 9.94922C16.8105 10.2227 16.2572 10.6133 15.6387 11.1211C15.0267 11.6289 14.3301 12.2246 13.5488 12.9082C12.8132 13.5592 12.1979 14.0801 11.7031 14.4707C11.2083 14.8613 10.8047 15.151 10.4922 15.3398C10.1862 15.5221 9.94531 15.6263 9.76953 15.6523C9.60026 15.6784 9.47005 15.6458 9.37891 15.5547C9.28125 15.4505 9.23568 15.3236 9.24219 15.1738C9.25521 15.0176 9.33008 14.8092 9.4668 14.5488C9.61003 14.2819 9.82812 13.9336 10.1211 13.5039C10.4141 13.0742 10.7917 12.5371 11.2539 11.8926C11.7161 11.248 12.276 10.4668 12.9336 9.54883C13.7018 8.47461 14.3757 7.49805 14.9551 6.61914C15.541 5.73372 15.9935 4.93945 16.3125 4.23633C16.6315 3.5332 16.7845 2.91146 16.7715 2.37109C16.7585 1.82422 16.5436 1.34896 16.127 0.945312C15.5605 0.391927 14.9225 0.0989583 14.2129 0.0664062C13.5098 0.0338542 12.6602 0.304036 11.6641 0.876953C10.6745 1.44336 9.4668 2.34505 8.04102 3.58203C6.62174 4.81901 4.90625 6.43034 2.89453 8.41602C2.6276 8.68294 2.38997 8.91732 2.18164 9.11914C1.97331 9.32096 1.79102 9.49674 1.63477 9.64648C1.48503 9.79622 1.35807 9.92318 1.25391 10.0273C1.14974 10.1315 1.06836 10.2161 1.00977 10.2812C0.76237 10.5612 0.60612 10.8509 0.541016 11.1504C0.475911 11.4434 0.479167 11.7201 0.550781 11.9805C0.628906 12.2409 0.752604 12.4557 0.921875 12.625Z" fill="#03134D" fill-opacity="0.4"/>
</svg>
